<svg xmlns="http://www.w3.org/2000/svg" viewBox="0 0 512.001 512.001" style="enable-background:new 0 0 512.001 512.001" xml:space="preserve"><path d="M391.934 80.667h-18.829V50.64H0v264.952C0 395.969 65.391 461.36 145.768 461.36h81.571c78.634 0 142.914-62.588 145.665-140.564h18.932c66.204 0 120.066-53.862 120.066-120.067S458.138 80.667 391.934 80.667zm-48.83 234.927c0 63.834-51.932 115.766-115.766 115.766h-81.571c-63.833 0-115.765-51.932-115.765-115.766V80.642h313.103v234.952zm30.001-144.923h18.829c16.576 0 30.061 13.486 30.061 30.062s-13.486 30.061-30.061 30.061h-18.829v-60.123zm18.829 120.126h-18.829v-30.001h18.829c33.119 0 60.063-26.943 60.063-60.063 0-33.12-26.944-60.064-60.063-60.064h-18.829v-30.001h18.829c49.661 0 90.064 40.402 90.064 90.064s-40.402 90.065-90.064 90.065z"/></svg>