<svg height="412pt" viewBox="0 0 412 412.541" width="412pt" xmlns="http://www.w3.org/2000/svg"><path d="M393.453 339.55a110.442 110.442 0 0 0-27.281-45.198L100.527 28.707c-3.906-3.902-10.238-3.902-14.14 0l-1.485 1.484L63.91 8.93A30.008 30.008 0 0 0 42.555 0a30.008 30.008 0 0 0-21.356 8.93L8.883 21.414C-2.657 33.172-2.59 52.02 9.027 63.7l21.11 21.11-7.766 7.68a49.993 49.993 0 0 0-14.844 35.413 50 50 0 0 0 14.641 35.496l80.035 80.032c3.906 3.906 10.238 3.906 14.145 0 3.902-3.903 3.902-10.235-.004-14.14l-80.031-80.036c-11.454-11.45-11.747-29.926-.665-41.73l119.72 119.718 21.862 21.867 14.149 14.141 102.945 102.945a110.425 110.425 0 0 0 45.2 27.285l60.027 18.614a10.002 10.002 0 0 0 12.512-12.516zM23.121 35.46l12.313-12.483A9.998 9.998 0 0 1 42.554 20a9.998 9.998 0 0 1 7.122 2.977l21.082 21.355-26.399 26.406-21.191-21.183c-3.871-3.89-3.895-10.176-.047-14.094zm26.777 58.024 43.559-43.562L199.586 156.05l-43.563 43.562zm120.27 120.27 43.559-43.563 21.214 21.215-43.562 43.563zm35.355 35.355 43.563-43.562 102.941 102.945a87.103 87.103 0 0 1 3.036 3.207l-43.391 43.39c-1.09-.987-2.164-2-3.2-3.034zM345.45 374.375a89.98 89.98 0 0 1-17.324-7.453l38.77-38.77a89.89 89.89 0 0 1 7.457 17.325l12.988 41.886zm0 0"/></svg>